<mxfile host="app.diagrams.net" agent="Mozilla/5.0 (Windows NT 10.0; Win64; x64) AppleWebKit/537.36 (KHTML, like Gecko) Chrome/133.0.0.0 Safari/537.36 Edg/133.0.0.0" version="26.0.15">
  <diagram name="Sayfa -1" id="Bo-onsH9myAUcyrCkkHk">
    <mxGraphModel dx="1426" dy="789" grid="1" gridSize="10" guides="1" tooltips="1" connect="1" arrows="1" fold="1" page="1" pageScale="1" pageWidth="827" pageHeight="1169" math="0" shadow="0">
      <root>
        <mxCell id="0" />
        <mxCell id="1" parent="0" />
        <mxCell id="cP4Xrm57fYCdioBI3kHv-5" value="" style="edgeStyle=orthogonalEdgeStyle;rounded=0;orthogonalLoop=1;jettySize=auto;html=1;" edge="1" parent="1" source="cP4Xrm57fYCdioBI3kHv-1" target="cP4Xrm57fYCdioBI3kHv-2">
          <mxGeometry relative="1" as="geometry" />
        </mxCell>
        <mxCell id="cP4Xrm57fYCdioBI3kHv-1" value="Başlangıç" style="rounded=1;whiteSpace=wrap;html=1;fillColor=#d5e8d4;strokeColor=#82b366;" vertex="1" parent="1">
          <mxGeometry x="200" y="80" width="120" height="60" as="geometry" />
        </mxCell>
        <mxCell id="cP4Xrm57fYCdioBI3kHv-6" value="" style="edgeStyle=orthogonalEdgeStyle;rounded=0;orthogonalLoop=1;jettySize=auto;html=1;" edge="1" parent="1" source="cP4Xrm57fYCdioBI3kHv-2" target="cP4Xrm57fYCdioBI3kHv-3">
          <mxGeometry relative="1" as="geometry" />
        </mxCell>
        <mxCell id="cP4Xrm57fYCdioBI3kHv-2" value="İşlem&lt;div&gt;Geçtiği Süreç&lt;/div&gt;" style="rounded=0;whiteSpace=wrap;html=1;fillColor=#dae8fc;strokeColor=#6c8ebf;" vertex="1" parent="1">
          <mxGeometry x="360" y="80" width="120" height="60" as="geometry" />
        </mxCell>
        <mxCell id="cP4Xrm57fYCdioBI3kHv-3" value="Çıktı&lt;div&gt;Sonuç&lt;/div&gt;&lt;div&gt;Gösterim&lt;/div&gt;" style="shape=document;whiteSpace=wrap;html=1;boundedLbl=1;fillColor=#d5e8d4;strokeColor=#82b366;" vertex="1" parent="1">
          <mxGeometry x="520" y="70" width="120" height="80" as="geometry" />
        </mxCell>
        <mxCell id="cP4Xrm57fYCdioBI3kHv-4" value="Renklerle ve Şekillerle Nelerin Simgelendiği" style="text;html=1;align=center;verticalAlign=middle;resizable=0;points=[];autosize=1;strokeWidth=1;glass=0;fontSize=15;fontStyle=2" vertex="1" parent="1">
          <mxGeometry x="256" y="20" width="310" height="30" as="geometry" />
        </mxCell>
      </root>
    </mxGraphModel>
  </diagram>
</mxfile>
